<svg xmlns="http://www.w3.org/2000/svg" xmlns:xlink="http://www.w3.org/1999/xlink" width="500" zoomAndPan="magnify" viewBox="0 0 375 374.999991" height="500" preserveAspectRatio="xMidYMid meet" version="1.0"><defs><clipPath id="id1"><path d="M 230.613281 114.113281 L 375 114.113281 L 375 261.113281 L 230.613281 261.113281 Z M 230.613281 114.113281 " clip-rule="nonzero"/></clipPath><clipPath id="id2"><path d="M 121 137 L 211.246094 137 L 211.246094 244.53125 L 121 244.53125 Z M 121 137 " clip-rule="nonzero"/></clipPath><clipPath id="id3"><path d="M 114.496094 130.53125 L 207 130.53125 L 207 240 L 114.496094 240 Z M 114.496094 130.53125 " clip-rule="nonzero"/></clipPath><clipPath id="id4"><path d="M 6 137 L 90.75 137 L 90.75 244.53125 L 6 244.53125 Z M 6 137 " clip-rule="nonzero"/></clipPath><clipPath id="id5"><path d="M 0 130.53125 L 86 130.53125 L 86 240 L 0 240 Z M 0 130.53125 " clip-rule="nonzero"/></clipPath><clipPath id="id6"><path d="M 239 175 L 290 175 L 290 240 L 239 240 Z M 239 175 " clip-rule="nonzero"/></clipPath><clipPath id="id7"><path d="M 256.226562 164.152344 L 309.878906 183.394531 L 289.875 239.167969 L 236.222656 219.921875 Z M 256.226562 164.152344 " clip-rule="nonzero"/></clipPath><clipPath id="id8"><path d="M 256.226562 164.152344 L 309.878906 183.394531 L 289.875 239.167969 L 236.222656 219.921875 Z M 256.226562 164.152344 " clip-rule="nonzero"/></clipPath><clipPath id="id9"><path d="M 237 171 L 289 171 L 289 236 L 237 236 Z M 237 171 " clip-rule="nonzero"/></clipPath><clipPath id="id10"><path d="M 256.226562 164.152344 L 309.878906 183.394531 L 289.875 239.167969 L 236.222656 219.921875 Z M 256.226562 164.152344 " clip-rule="nonzero"/></clipPath><clipPath id="id11"><path d="M 256.226562 164.152344 L 309.878906 183.394531 L 289.875 239.167969 L 236.222656 219.921875 Z M 256.226562 164.152344 " clip-rule="nonzero"/></clipPath><clipPath id="id12"><path d="M 319 175 L 370 175 L 370 239 L 319 239 Z M 319 175 " clip-rule="nonzero"/></clipPath><clipPath id="id13"><path d="M 295.578125 184.289062 L 349.050781 164.546875 L 369.570312 220.132812 L 316.097656 239.871094 Z M 295.578125 184.289062 " clip-rule="nonzero"/></clipPath><clipPath id="id14"><path d="M 295.578125 184.289062 L 349.050781 164.546875 L 369.570312 220.132812 L 316.097656 239.871094 Z M 295.578125 184.289062 " clip-rule="nonzero"/></clipPath><clipPath id="id15"><path d="M 314 172 L 367 172 L 367 238 L 314 238 Z M 314 172 " clip-rule="nonzero"/></clipPath><clipPath id="id16"><path d="M 295.578125 184.289062 L 349.050781 164.546875 L 369.570312 220.132812 L 316.097656 239.871094 Z M 295.578125 184.289062 " clip-rule="nonzero"/></clipPath><clipPath id="id17"><path d="M 295.578125 184.289062 L 349.050781 164.546875 L 369.570312 220.132812 L 316.097656 239.871094 Z M 295.578125 184.289062 " clip-rule="nonzero"/></clipPath><clipPath id="id18"><path d="M 265.636719 136.753906 L 339.886719 136.753906 L 339.886719 157 L 265.636719 157 Z M 265.636719 136.753906 " clip-rule="nonzero"/></clipPath></defs><g clip-path="url(#id1)"><path fill="rgb(32.939148%, 32.939148%, 32.939148%)" d="M 375.25 144.789062 C 375.230469 144.71875 375.199219 144.65625 375.171875 144.589844 C 375.121094 144.453125 375.0625 144.320312 374.984375 144.195312 C 374.941406 144.125 374.894531 144.0625 374.84375 144 C 374.761719 143.886719 374.671875 143.785156 374.566406 143.691406 C 374.507812 143.632812 374.449219 143.582031 374.378906 143.53125 C 374.339844 143.503906 374.3125 143.464844 374.273438 143.4375 C 374.183594 143.378906 374.085938 143.34375 373.992188 143.296875 C 373.941406 143.273438 373.90625 143.238281 373.855469 143.214844 L 303.90625 114.296875 C 303.3125 114.050781 302.652344 114.050781 302.058594 114.296875 L 232.109375 143.214844 C 232.058594 143.238281 232.019531 143.273438 231.972656 143.296875 C 231.878906 143.34375 231.78125 143.378906 231.695312 143.4375 C 231.65625 143.464844 231.628906 143.5 231.589844 143.527344 C 231.523438 143.578125 231.464844 143.632812 231.402344 143.691406 C 231.300781 143.785156 231.210938 143.886719 231.125 143.996094 C 231.074219 144.0625 231.03125 144.125 230.984375 144.195312 C 230.910156 144.320312 230.851562 144.453125 230.796875 144.589844 C 230.769531 144.65625 230.738281 144.714844 230.722656 144.785156 C 230.664062 145 230.625 145.21875 230.625 145.441406 L 230.625 229.785156 C 230.625 230.761719 231.214844 231.640625 232.113281 232.011719 L 302.0625 260.929688 C 302.09375 260.941406 302.128906 260.9375 302.160156 260.949219 C 302.429688 261.050781 302.703125 261.113281 302.988281 261.113281 C 303.273438 261.113281 303.546875 261.050781 303.816406 260.949219 C 303.847656 260.9375 303.878906 260.941406 303.910156 260.929688 L 373.859375 232.011719 C 374.761719 231.640625 375.347656 230.761719 375.347656 229.785156 L 375.347656 145.441406 C 375.347656 145.21875 375.3125 145 375.25 144.789062 Z M 302.988281 119.132812 L 366.628906 145.441406 L 302.988281 171.753906 L 239.347656 145.441406 Z M 235.449219 149.046875 L 300.574219 175.96875 L 300.574219 255.097656 L 235.449219 228.175781 Z M 370.523438 228.175781 L 305.398438 255.097656 L 305.398438 175.96875 L 370.523438 149.046875 Z M 370.523438 228.175781 " fill-opacity="1" fill-rule="nonzero"/></g><g clip-path="url(#id2)"><path fill="rgb(0%, 76.078796%, 79.60968%)" d="M 157.890625 204.714844 L 147.308594 216.300781 L 147.308594 244.46875 L 121.523438 244.46875 L 121.523438 137.671875 L 147.308594 137.671875 L 147.308594 184.761719 L 156.273438 171.191406 L 179.347656 137.671875 L 211.234375 137.671875 L 175.082031 184.90625 L 211.234375 244.46875 L 180.671875 244.46875 L 157.890625 204.714844 " fill-opacity="1" fill-rule="nonzero"/></g><g clip-path="url(#id3)"><path fill="rgb(1.179504%, 59.609985%, 61.959839%)" d="M 154.191406 160.84375 C 153.976562 160.84375 153.757812 160.78125 153.5625 160.648438 C 153.0625 160.300781 152.933594 159.613281 153.28125 159.109375 L 154.074219 157.957031 C 154.421875 157.449219 155.113281 157.324219 155.617188 157.667969 C 156.121094 158.015625 156.25 158.703125 155.902344 159.207031 L 155.105469 160.363281 C 154.890625 160.675781 154.542969 160.84375 154.191406 160.84375 Z M 205.328125 239.679688 L 174.761719 239.679688 C 174.363281 239.679688 173.996094 239.464844 173.800781 239.121094 L 151.777344 200.683594 L 142.511719 210.832031 L 142.511719 238.570312 C 142.511719 239.179688 142.015625 239.679688 141.402344 239.679688 L 115.613281 239.679688 C 115 239.679688 114.507812 239.179688 114.507812 238.570312 L 114.507812 131.773438 C 114.507812 131.164062 115 130.667969 115.613281 130.667969 L 141.402344 130.667969 C 142.015625 130.667969 142.511719 131.164062 142.511719 131.773438 L 142.511719 175.179688 L 149.441406 164.6875 C 149.777344 164.175781 150.46875 164.035156 150.976562 164.371094 C 151.488281 164.707031 151.628906 165.394531 151.292969 165.90625 L 142.328125 179.472656 C 142.058594 179.882812 141.554688 180.066406 141.085938 179.921875 C 140.617188 179.785156 140.296875 179.355469 140.296875 178.867188 L 140.296875 132.878906 L 116.722656 132.878906 L 116.722656 237.46875 L 140.296875 237.46875 L 140.296875 210.40625 C 140.296875 210.128906 140.398438 209.863281 140.582031 209.660156 L 151.164062 198.070312 C 151.40625 197.808594 151.75 197.679688 152.105469 197.714844 C 152.457031 197.753906 152.769531 197.960938 152.945312 198.265625 L 175.40625 237.46875 L 203.359375 237.46875 L 168.230469 179.582031 C 167.992188 179.195312 168.019531 178.699219 168.296875 178.339844 L 203.085938 132.878906 L 174.019531 132.878906 L 162.769531 149.226562 C 162.425781 149.730469 161.738281 149.855469 161.230469 149.511719 C 160.726562 149.164062 160.597656 148.476562 160.945312 147.972656 L 172.527344 131.148438 C 172.734375 130.847656 173.074219 130.667969 173.4375 130.667969 L 205.328125 130.667969 C 205.746094 130.667969 206.132812 130.90625 206.320312 131.285156 C 206.503906 131.660156 206.464844 132.109375 206.207031 132.445312 L 170.515625 179.085938 L 206.273438 238 C 206.480469 238.339844 206.488281 238.765625 206.292969 239.117188 C 206.097656 239.460938 205.726562 239.679688 205.328125 239.679688 " fill-opacity="1" fill-rule="nonzero"/></g><g clip-path="url(#id4)"><path fill="rgb(76.858521%, 11.369324%, 38.42926%)" d="M 32.691406 157.597656 L 32.691406 224.609375 L 41.621094 224.609375 C 48.992188 224.609375 54.652344 221.984375 58.605469 216.734375 C 62.5625 211.484375 64.539062 203.6875 64.539062 193.335938 L 64.539062 188.722656 C 64.539062 178.421875 62.5625 170.65625 58.605469 165.433594 C 54.652344 160.207031 48.894531 157.597656 41.328125 157.597656 Z M 6.992188 244.382812 L 6.992188 137.746094 L 41.328125 137.746094 C 50.75 137.746094 59.21875 139.886719 66.734375 144.15625 C 74.25 148.429688 80.121094 154.457031 84.339844 162.246094 C 88.5625 170.035156 90.699219 178.761719 90.75 188.429688 L 90.75 193.335938 C 90.75 203.101562 88.683594 211.855469 84.5625 219.59375 C 80.4375 227.332031 74.625 233.386719 67.136719 237.753906 C 59.644531 242.125 51.285156 244.332031 42.0625 244.382812 L 6.992188 244.382812 " fill-opacity="1" fill-rule="nonzero"/></g><g clip-path="url(#id5)"><path fill="rgb(48.239136%, 6.269836%, 37.249756%)" d="M 54.234375 136.257812 C 54.105469 136.257812 53.972656 136.234375 53.84375 136.1875 C 53.539062 136.070312 53.230469 135.957031 52.921875 135.847656 C 52.347656 135.640625 52.046875 135.011719 52.25 134.433594 C 52.453125 133.859375 53.085938 133.558594 53.660156 133.765625 C 53.984375 133.878906 54.304688 134 54.625 134.121094 C 55.195312 134.335938 55.484375 134.976562 55.265625 135.546875 C 55.097656 135.984375 54.679688 136.257812 54.234375 136.257812 Z M 27.90625 217.613281 L 35.734375 217.613281 C 42.804688 217.613281 48.074219 215.183594 51.839844 210.183594 C 55.628906 205.15625 57.546875 197.503906 57.546875 187.445312 L 57.546875 182.832031 C 57.546875 172.824219 55.628906 165.210938 51.84375 160.210938 C 48.074219 155.230469 42.707031 152.808594 35.441406 152.808594 L 27.90625 152.808594 Z M 35.734375 219.824219 L 26.804688 219.824219 C 26.191406 219.824219 25.699219 219.328125 25.699219 218.71875 L 25.699219 151.707031 C 25.699219 151.09375 26.191406 150.601562 26.804688 150.601562 L 35.441406 150.601562 C 43.335938 150.601562 49.445312 153.386719 53.601562 158.875 C 57.683594 164.273438 59.753906 172.332031 59.753906 182.832031 L 59.753906 187.445312 C 59.753906 197.996094 57.683594 206.09375 53.601562 211.511719 C 49.445312 217.027344 43.433594 219.824219 35.734375 219.824219 Z M 1.105469 239.597656 C 0.496094 239.597656 0 239.105469 0 238.492188 L 0 131.859375 C 0 131.25 0.496094 130.757812 1.105469 130.757812 L 35.441406 130.757812 C 38.792969 130.757812 42.074219 131.023438 45.191406 131.558594 C 45.792969 131.664062 46.195312 132.234375 46.09375 132.835938 C 45.992188 133.433594 45.421875 133.835938 44.820312 133.738281 C 41.824219 133.222656 38.671875 132.960938 35.441406 132.960938 L 2.210938 132.960938 L 2.210938 237.390625 L 36.175781 237.390625 C 45.152344 237.34375 53.40625 235.164062 60.691406 230.910156 C 67.96875 226.667969 73.691406 220.703125 77.703125 213.183594 C 81.71875 205.640625 83.757812 196.984375 83.757812 187.445312 L 83.757812 182.542969 C 83.710938 173.109375 81.597656 164.472656 77.484375 156.886719 C 73.382812 149.316406 67.601562 143.378906 60.300781 139.226562 C 59.773438 138.925781 59.585938 138.253906 59.886719 137.722656 C 60.1875 137.191406 60.863281 137.007812 61.390625 137.308594 C 69.058594 141.664062 75.121094 147.898438 79.425781 155.832031 C 83.714844 163.746094 85.914062 172.730469 85.964844 182.535156 L 85.964844 187.445312 C 85.964844 197.347656 83.839844 206.355469 79.648438 214.222656 C 75.445312 222.109375 69.441406 228.367188 61.804688 232.820312 C 54.179688 237.265625 45.554688 239.550781 36.179688 239.597656 L 1.105469 239.597656 " fill-opacity="1" fill-rule="nonzero"/></g><g clip-path="url(#id6)"><g clip-path="url(#id7)"><g clip-path="url(#id8)"><path fill="rgb(100%, 79.998779%, 54.508972%)" d="M 266.117188 208.617188 L 277.328125 212.636719 L 278.207031 192.503906 Z M 276.851562 223.441406 L 259.621094 217.261719 L 253.113281 225.941406 L 239.683594 221.125 L 277.546875 175.742188 L 289.367188 179.984375 L 289.898438 239.136719 L 276.394531 234.292969 L 276.851562 223.441406 " fill-opacity="1" fill-rule="nonzero"/></g></g></g><g clip-path="url(#id9)"><g clip-path="url(#id10)"><g clip-path="url(#id11)"><path fill="rgb(92.158508%, 45.489502%, 27.839661%)" d="M 254.605469 197.417969 C 254.542969 197.394531 254.484375 197.359375 254.433594 197.316406 C 254.1875 197.113281 254.15625 196.75 254.359375 196.507812 L 254.847656 195.925781 C 255.050781 195.679688 255.410156 195.648438 255.65625 195.851562 C 255.898438 196.054688 255.929688 196.417969 255.726562 196.660156 L 255.238281 197.242188 C 255.082031 197.433594 254.824219 197.496094 254.605469 197.417969 Z M 265.199219 204.421875 L 274.945312 207.917969 L 275.707031 190.414062 Z M 275.289062 209.261719 L 264.078125 205.242188 C 263.910156 205.179688 263.777344 205.039062 263.726562 204.863281 C 263.671875 204.691406 263.707031 204.5 263.816406 204.355469 L 275.902344 188.238281 C 276.054688 188.039062 276.316406 187.957031 276.554688 188.042969 C 276.789062 188.128906 276.945312 188.355469 276.933594 188.609375 L 276.058594 208.746094 C 276.050781 208.925781 275.957031 209.09375 275.804688 209.199219 C 275.652344 209.300781 275.460938 209.324219 275.289062 209.261719 Z M 287.859375 235.757812 L 274.355469 230.914062 C 274.121094 230.832031 273.964844 230.601562 273.976562 230.351562 L 274.414062 219.921875 L 257.980469 214.027344 L 251.726562 222.367188 C 251.574219 222.570312 251.3125 222.648438 251.074219 222.566406 L 237.644531 217.746094 C 237.464844 217.683594 237.332031 217.539062 237.28125 217.359375 C 237.234375 217.175781 237.277344 216.984375 237.398438 216.839844 L 251.519531 199.914062 C 251.722656 199.667969 252.082031 199.636719 252.324219 199.839844 C 252.570312 200.042969 252.601562 200.40625 252.398438 200.648438 L 238.804688 216.941406 L 251.066406 221.339844 L 257.320312 213 C 257.46875 212.796875 257.734375 212.71875 257.972656 212.800781 L 275.199219 218.980469 C 275.4375 219.066406 275.589844 219.296875 275.578125 219.546875 L 275.140625 229.976562 L 287.46875 234.398438 L 286.949219 176.472656 L 275.882812 172.5 L 259.425781 192.230469 C 259.21875 192.472656 258.859375 192.503906 258.617188 192.300781 C 258.375 192.097656 258.339844 191.738281 258.542969 191.492188 L 275.261719 171.457031 C 275.417969 171.273438 275.667969 171.203125 275.894531 171.285156 L 287.714844 175.523438 C 287.941406 175.605469 288.09375 175.820312 288.09375 176.058594 L 288.625 235.210938 C 288.628906 235.402344 288.539062 235.578125 288.386719 235.6875 C 288.230469 235.796875 288.035156 235.824219 287.859375 235.757812 " fill-opacity="1" fill-rule="nonzero"/></g></g></g><g clip-path="url(#id12)"><g clip-path="url(#id13)"><g clip-path="url(#id14)"><path fill="rgb(100%, 79.998779%, 54.508972%)" d="M 331.734375 211.996094 L 342.90625 207.871094 L 330.636719 191.882812 Z M 349.484375 216.457031 L 332.3125 222.792969 L 332.90625 233.628906 L 319.519531 238.570312 L 319.359375 179.464844 L 331.140625 175.117188 L 369.566406 220.09375 L 356.109375 225.0625 L 349.484375 216.457031 " fill-opacity="1" fill-rule="nonzero"/></g></g></g><g clip-path="url(#id15)"><g clip-path="url(#id16)"><g clip-path="url(#id17)"><path fill="rgb(92.158508%, 45.489502%, 27.839661%)" d="M 315.714844 210.816406 C 315.652344 210.835938 315.585938 210.847656 315.515625 210.851562 C 315.199219 210.851562 314.945312 210.59375 314.941406 210.277344 L 314.941406 209.519531 C 314.941406 209.199219 315.195312 208.941406 315.511719 208.941406 C 315.828125 208.941406 316.085938 209.199219 316.089844 209.515625 L 316.089844 210.273438 C 316.089844 210.523438 315.933594 210.734375 315.714844 210.816406 Z M 328.332031 209.371094 L 338.046875 205.785156 L 327.378906 191.886719 Z M 339.175781 206.597656 L 328 210.71875 C 327.832031 210.78125 327.640625 210.761719 327.488281 210.660156 C 327.335938 210.5625 327.238281 210.394531 327.230469 210.210938 L 326.132812 190.097656 C 326.117188 189.847656 326.269531 189.613281 326.503906 189.527344 L 326.507812 189.527344 C 326.742188 189.441406 327.007812 189.515625 327.160156 189.714844 L 339.429688 205.707031 C 339.542969 205.851562 339.578125 206.039062 339.527344 206.214844 C 339.476562 206.390625 339.34375 206.53125 339.175781 206.597656 Z M 365.832031 218.816406 L 352.375 223.785156 C 352.140625 223.871094 351.875 223.796875 351.722656 223.597656 L 345.355469 215.324219 L 328.976562 221.371094 L 329.546875 231.78125 C 329.558594 232.035156 329.410156 232.265625 329.171875 232.351562 L 315.785156 237.292969 C 315.609375 237.359375 315.414062 237.332031 315.261719 237.226562 C 315.105469 237.117188 315.015625 236.941406 315.011719 236.753906 L 314.953125 214.714844 C 314.953125 214.394531 315.210938 214.136719 315.527344 214.136719 C 315.84375 214.136719 316.101562 214.394531 316.101562 214.710938 L 316.160156 235.929688 L 328.378906 231.417969 L 327.808594 221.007812 C 327.792969 220.757812 327.945312 220.527344 328.183594 220.4375 L 345.351562 214.101562 C 345.589844 214.011719 345.851562 214.089844 346.003906 214.289062 L 352.375 222.5625 L 364.664062 218.027344 L 327.03125 173.980469 L 316.003906 178.050781 L 316.070312 203.742188 C 316.074219 204.0625 315.816406 204.320312 315.5 204.320312 C 315.183594 204.320312 314.925781 204.0625 314.925781 203.746094 L 314.855469 177.652344 C 314.855469 177.410156 315.003906 177.195312 315.230469 177.113281 L 327.011719 172.765625 C 327.234375 172.679688 327.488281 172.746094 327.644531 172.929688 L 366.070312 217.90625 C 366.191406 218.046875 366.238281 218.242188 366.1875 218.421875 C 366.140625 218.605469 366.007812 218.753906 365.832031 218.816406 " fill-opacity="1" fill-rule="nonzero"/></g></g></g><g clip-path="url(#id18)"><path fill="rgb(32.939148%, 32.939148%, 32.939148%)" d="M 294.902344 156.042969 C 302.980469 155.441406 310.890625 151.855469 317.871094 148.695312 C 324.132812 145.855469 329.539062 143.40625 333.648438 143.636719 C 334.359375 143.675781 334.964844 143.128906 335.003906 142.417969 C 335.042969 141.707031 334.5 141.097656 333.792969 141.058594 C 329.054688 140.792969 323.382812 143.363281 316.8125 146.339844 C 302.695312 152.742188 286.691406 159.992188 272.609375 143.582031 C 272.148438 143.042969 271.335938 142.984375 270.800781 143.449219 C 270.261719 143.914062 270.203125 144.726562 270.664062 145.269531 C 276.925781 152.5625 284.105469 156.128906 292.566406 156.128906 C 293.332031 156.128906 294.113281 156.101562 294.902344 156.042969 Z M 266.800781 144.652344 C 266.855469 144.53125 266.914062 144.414062 266.976562 144.300781 L 267.167969 143.972656 C 267.285156 143.75 267.441406 143.558594 267.566406 143.355469 C 267.859375 142.972656 268.160156 142.621094 268.492188 142.308594 C 268.832031 142.007812 269.175781 141.722656 269.558594 141.488281 C 270.320312 141.015625 271.160156 140.675781 272.097656 140.503906 L 272.277344 140.46875 L 272.457031 140.449219 C 272.574219 140.433594 272.699219 140.414062 272.824219 140.402344 C 273.070312 140.394531 273.328125 140.359375 273.589844 140.367188 C 273.855469 140.363281 274.125 140.378906 274.402344 140.398438 C 274.40625 140.398438 274.410156 140.398438 274.410156 140.398438 C 274.742188 140.425781 274.929688 140.019531 274.6875 139.796875 C 274.453125 139.585938 274.195312 139.398438 273.921875 139.234375 C 273.648438 139.074219 273.355469 138.960938 273.054688 138.84375 C 272.902344 138.785156 272.746094 138.753906 272.585938 138.710938 L 272.351562 138.652344 C 272.269531 138.636719 272.1875 138.628906 272.109375 138.617188 C 270.8125 138.421875 269.421875 138.742188 268.289062 139.457031 C 267.71875 139.8125 267.222656 140.28125 266.804688 140.800781 C 266.390625 141.328125 266.085938 141.929688 265.875 142.550781 C 265.832031 142.707031 265.796875 142.871094 265.757812 143.027344 C 265.742188 143.105469 265.71875 143.183594 265.707031 143.265625 C 265.695312 143.34375 265.6875 143.425781 265.679688 143.503906 C 265.664062 143.667969 265.640625 143.824219 265.636719 143.984375 C 265.632812 144.144531 265.636719 144.304688 265.648438 144.460938 C 265.667969 144.714844 265.707031 144.96875 265.769531 145.214844 C 265.863281 145.59375 266.386719 145.632812 266.527344 145.273438 C 266.613281 145.054688 266.703125 144.851562 266.800781 144.652344 Z M 337.628906 145.355469 C 337.652344 145.226562 337.675781 145.097656 337.6875 144.96875 L 337.722656 144.585938 C 337.757812 144.34375 337.738281 144.089844 337.753906 143.855469 C 337.734375 143.371094 337.695312 142.910156 337.605469 142.464844 C 337.503906 142.019531 337.390625 141.585938 337.214844 141.171875 C 336.867188 140.34375 336.382812 139.578125 335.714844 138.890625 L 335.59375 138.753906 L 335.457031 138.632812 C 335.367188 138.550781 335.277344 138.464844 335.1875 138.378906 C 334.988281 138.230469 334.796875 138.050781 334.582031 137.90625 C 334.367188 137.746094 334.140625 137.601562 333.902344 137.457031 C 333.898438 137.453125 333.894531 137.453125 333.894531 137.453125 C 333.609375 137.28125 333.691406 136.839844 334.019531 136.800781 C 334.328125 136.765625 334.648438 136.761719 334.964844 136.792969 C 335.28125 136.816406 335.585938 136.898438 335.898438 136.980469 C 336.054688 137.019531 336.203125 137.085938 336.355469 137.144531 L 336.582031 137.234375 C 336.65625 137.269531 336.726562 137.308594 336.800781 137.347656 C 337.96875 137.945312 338.910156 139.015625 339.421875 140.261719 C 339.679688 140.882812 339.8125 141.554688 339.851562 142.21875 C 339.882812 142.890625 339.785156 143.558594 339.597656 144.183594 C 339.542969 144.339844 339.476562 144.492188 339.417969 144.640625 C 339.386719 144.714844 339.359375 144.792969 339.324219 144.863281 C 339.285156 144.9375 339.242188 145.007812 339.203125 145.078125 C 339.121094 145.21875 339.050781 145.359375 338.960938 145.492188 C 338.871094 145.625 338.777344 145.75 338.675781 145.875 C 338.511719 146.070312 338.332031 146.253906 338.140625 146.417969 C 337.847656 146.667969 337.398438 146.398438 337.492188 146.019531 C 337.546875 145.792969 337.59375 145.574219 337.628906 145.355469 " fill-opacity="1" fill-rule="nonzero"/></g></svg>